<svg xmlns="http://www.w3.org/2000/svg" viewBox="0 0 64 64" fill="none">
  <!-- Background circle -->
  <circle cx="32" cy="32" r="32" fill="#047857"/>
  <!-- Subtle inner ring -->
  <circle cx="32" cy="32" r="28" fill="none" stroke="rgba(255,255,255,0.15)" stroke-width="1.5"/>
  <!-- Gear teeth (12 teeth) -->
  <g fill="#10b981">
    <rect x="29.5" y="6" width="5" height="7" rx="1"/>
    <rect x="29.5" y="6" width="5" height="7" rx="1" transform="rotate(30 32 32)"/>
    <rect x="29.5" y="6" width="5" height="7" rx="1" transform="rotate(60 32 32)"/>
    <rect x="29.5" y="6" width="5" height="7" rx="1" transform="rotate(90 32 32)"/>
    <rect x="29.5" y="6" width="5" height="7" rx="1" transform="rotate(120 32 32)"/>
    <rect x="29.5" y="6" width="5" height="7" rx="1" transform="rotate(150 32 32)"/>
    <rect x="29.5" y="6" width="5" height="7" rx="1" transform="rotate(180 32 32)"/>
    <rect x="29.5" y="6" width="5" height="7" rx="1" transform="rotate(210 32 32)"/>
    <rect x="29.5" y="6" width="5" height="7" rx="1" transform="rotate(240 32 32)"/>
    <rect x="29.5" y="6" width="5" height="7" rx="1" transform="rotate(270 32 32)"/>
    <rect x="29.5" y="6" width="5" height="7" rx="1" transform="rotate(300 32 32)"/>
    <rect x="29.5" y="6" width="5" height="7" rx="1" transform="rotate(330 32 32)"/>
  </g>
  <!-- Gear body -->
  <circle cx="32" cy="32" r="14" fill="#064e3b"/>
  <circle cx="32" cy="32" r="10" fill="#047857"/>
  <!-- Open book icon -->
  <g transform="translate(24.5, 27)">
    <path d="M0.5 2.5 C2 1, 5 1, 7.5 2.5 C10 1, 13 1, 14.5 2.5 L14.5 9.5 C13 8, 10 8, 7.5 9.5 C5 8, 2 8, 0.5 9.5 Z" fill="white" stroke="rgba(255,255,255,0.3)" stroke-width="0.5"/>
    <line x1="7.5" y1="2.5" x2="7.5" y2="9.5" stroke="rgba(4,120,87,0.6)" stroke-width="0.8"/>
    <line x1="2.5" y1="4.5" x2="6" y2="4.5" stroke="rgba(4,120,87,0.5)" stroke-width="0.6"/>
    <line x1="2.5" y1="6.5" x2="6" y2="6.5" stroke="rgba(4,120,87,0.5)" stroke-width="0.6"/>
    <line x1="9" y1="4.5" x2="12.5" y2="4.5" stroke="rgba(4,120,87,0.5)" stroke-width="0.6"/>
    <line x1="9" y1="6.5" x2="12.5" y2="6.5" stroke="rgba(4,120,87,0.5)" stroke-width="0.6"/>
  </g>
</svg>
